<?xml version="1.0" encoding="UTF-8" standalone="no"?>
<!DOCTYPE svg PUBLIC "-//W3C//DTD SVG 1.1//EN" "http://www.w3.org/Graphics/SVG/1.1/DTD/svg11.dtd">
<svg width="100%" height="100%" viewBox="0 0 560 240" version="1.1" xmlns="http://www.w3.org/2000/svg" xmlns:xlink="http://www.w3.org/1999/xlink" xml:space="preserve" xmlns:serif="http://www.serif.com/" style="fill-rule:evenodd;clip-rule:evenodd;stroke-linejoin:round;stroke-miterlimit:2;">
    <g id="Background" transform="matrix(1.09375,0,0,1.15385,0,0)">
        <path d="M512,19.9C512,8.917 502.593,0 491.006,0L20.994,0C9.407,0 0,8.917 0,19.9L0,188.1C0,199.083 9.407,208 20.994,208L491.006,208C502.593,208 512,199.083 512,188.1L512,19.9Z" style="fill:rgb(242,242,242);"/>
    </g>
    <g id="Logo" transform="matrix(1,0,0,1,-40,-10)">
        <g id="Dimension-North" serif:id="Dimension North" transform="matrix(2.4922,0,0,2.4922,-617.109,-1144.7)">
            <g transform="matrix(2.1935,0,0,1.90406,-352.048,-280.421)">
                <text x="285.701px" y="405.124px" style="font-family:'AvenirNextCondensed-Regular', 'Avenir Next Condensed', sans-serif;font-stretch:condensed;font-size:12px;">D<tspan x="297.353px 305.297px 319.025px 329.201px 341.093px 351.461px 359.405px 371.405px " y="405.124px 405.124px 405.124px 405.124px 405.124px 405.124px 405.124px 405.124px ">IMENSION</tspan></text>
            </g>
            <g transform="matrix(2.94409,0,0,2.71008,-531.74,-671.498)">
                <g transform="matrix(25.8518,0,0,25.8518,344.033,450.12)">
                </g>
                <text x="272.631px" y="450.12px" style="font-family:'AvenirNextCondensed-Bold', 'Avenir Next Condensed', sans-serif;font-weight:700;font-stretch:condensed;font-size:25.852px;">N   R<tspan x="317.561px 328.29px " y="450.12px 450.12px ">TH</tspan></text>
            </g>
        </g>
        <g id="Graphic" transform="matrix(2.38215,0,0,2.38215,-578.655,-1088.21)">
            <path d="M341.026,507.639C336.801,507.143 332.663,508.37 329.434,510.845L316.913,510.093C322.861,500.651 334.472,495.736 345.811,498.774C347.733,499.289 349.548,500.006 351.238,500.896L341.026,507.639ZM352.983,501.903C362.426,507.851 367.341,519.462 364.302,530.801C363.787,532.724 363.07,534.538 362.181,536.229L355.064,525.45C355.554,521.419 354.475,517.464 352.239,514.298L352.983,501.903ZM361.174,537.973C355.225,547.416 343.615,552.331 332.275,549.292C330.353,548.777 328.539,548.06 326.848,547.171L338.437,539.519C341.704,539.672 344.874,538.81 347.563,537.156L361.174,537.973ZM325.103,546.164C315.661,540.215 310.746,528.605 313.784,517.265C314.299,515.343 315.016,513.529 315.906,511.838L323.188,522.868C323.042,526.343 324.043,529.706 325.924,532.492L325.103,546.164ZM341.184,516.325C342.537,516.701 343.712,517.403 344.648,518.325C346.635,520.281 347.543,523.221 346.771,526.104C346.4,527.486 345.689,528.686 344.752,529.639C342.796,531.625 339.856,532.533 336.973,531.761C336.949,531.754 336.926,531.748 336.902,531.742C335.55,531.366 334.374,530.663 333.438,529.742C331.451,527.786 330.543,524.846 331.316,521.963C331.322,521.939 331.329,521.916 331.335,521.892C332.507,517.67 336.872,515.169 341.114,516.306C341.137,516.312 341.161,516.319 341.184,516.325Z" style="fill:rgb(255,0,9);"/>
            <g transform="matrix(0.405795,0.234286,-0.198674,0.344114,303.977,183.598)">
                <path d="M417.197,658.274L428.187,632.353L439.314,658.594C433.756,655.569 427.305,654.731 420.937,656.743C419.642,657.152 418.393,657.666 417.197,658.274Z" style="fill:rgb(89,89,89);"/>
            </g>
        </g>
        <g transform="matrix(2.71466,0,0,2.71466,-694.111,-1252.88)">
            <circle cx="340.045" cy="520.505" r="7.344" style="fill:rgb(89,89,89);"/>
        </g>
    </g>
</svg>
