<?xml version="1.0" encoding="UTF-8" standalone="no"?>
<!DOCTYPE svg PUBLIC "-//W3C//DTD SVG 1.1//EN" "http://www.w3.org/Graphics/SVG/1.1/DTD/svg11.dtd">
<svg width="100%" height="100%" viewBox="0 0 600 600" version="1.1" xmlns="http://www.w3.org/2000/svg" xmlns:xlink="http://www.w3.org/1999/xlink" xml:space="preserve" xmlns:serif="http://www.serif.com/" style="fill-rule:evenodd;clip-rule:evenodd;stroke-linejoin:round;stroke-miterlimit:2;">
    <path d="M600,61.671C600,27.634 572.366,0 538.329,0L61.671,0C27.634,0 0,27.634 0,61.671L0,538.329C0,572.366 27.634,600 61.671,600L538.329,600C572.366,600 600,572.366 600,538.329L600,61.671Z" style="fill:rgb(230,230,230);"/>
    <g id="Star" transform="matrix(0.666917,0,0,0.666917,-514.806,-590.88)">
        <g transform="matrix(1,0,0,1,-10,-10)">
            <path d="M1095.93,1264.11L1012.69,1126.76L1150.05,1210L1139.39,1253.45L1095.93,1264.11Z"/>
        </g>
        <g transform="matrix(1,0,0,1,10,-10)">
            <path d="M1293.45,1210L1430.81,1126.76L1347.57,1264.11L1304.11,1253.45L1293.45,1210Z"/>
        </g>
        <g transform="matrix(1,0,0,1,-10,10)">
            <path d="M1150.05,1461.63L1012.69,1544.88L1095.93,1407.52L1139.39,1418.18L1150.05,1461.63Z"/>
        </g>
        <g transform="matrix(1,0,0,1,10,10)">
            <path d="M1347.57,1407.52L1430.81,1544.88L1293.45,1461.63L1304.11,1418.18L1347.57,1407.52Z"/>
        </g>
        <path d="M1139.39,1253.45L1221.75,917.698L1304.11,1253.45L1302.34,1253.02C1290.86,1241.87 1277.63,1233.57 1263.56,1228.12C1236.7,1217.73 1206.75,1217.72 1179.92,1228.1C1165.84,1233.55 1152.62,1241.86 1141.15,1253.02L1139.39,1253.45Z"/>
        <path d="M1304.11,1253.45L1639.87,1335.82L1304.11,1418.18L1304.42,1416.95C1315.73,1405.43 1324.13,1392.11 1329.63,1377.92C1340.08,1350.96 1340.05,1320.85 1329.52,1293.89C1324.04,1279.85 1315.72,1266.66 1304.55,1255.22L1304.11,1253.45Z"/>
        <path d="M1304.11,1418.18L1221.75,1753.94L1139.39,1418.18L1141.15,1418.61C1152.59,1429.78 1165.78,1438.11 1179.82,1443.59C1206.78,1454.11 1236.9,1454.15 1263.86,1443.7C1278.04,1438.2 1291.36,1429.79 1302.88,1418.48L1304.11,1418.18Z"/>
        <path d="M1139.39,1418.18L803.631,1335.82L1139.39,1253.45L1138.95,1255.22C1127.79,1266.69 1119.48,1279.91 1114.04,1293.99C1103.66,1320.82 1103.66,1350.77 1114.05,1377.62C1119.5,1391.7 1127.8,1404.93 1138.95,1416.41L1139.39,1418.18Z"/>
    </g>
    <g transform="matrix(2.53864,0,0,2.53864,-3677.18,-1714.76)">
        <g transform="matrix(50,0,0,50,1551.86,811.487)">
            <path d="M0.044,-0.714L0.044,-0L0.218,-0L0.218,-0.441L0.22,-0.441L0.344,-0L0.548,-0L0.548,-0.714L0.374,-0.714L0.374,-0.274L0.372,-0.274L0.252,-0.714L0.044,-0.714Z" style="fill-rule:nonzero;"/>
        </g>
    </g>
</svg>
