<?xml version="1.0" encoding="UTF-8" standalone="no"?>
<!DOCTYPE svg PUBLIC "-//W3C//DTD SVG 1.1//EN" "http://www.w3.org/Graphics/SVG/1.1/DTD/svg11.dtd">
<svg width="100%" height="100%" viewBox="0 0 512 512" version="1.1" xmlns="http://www.w3.org/2000/svg" xmlns:xlink="http://www.w3.org/1999/xlink" xml:space="preserve" xmlns:serif="http://www.serif.com/" style="fill-rule:evenodd;clip-rule:evenodd;stroke-linejoin:round;stroke-miterlimit:2;">
    <path d="M512,41.651C512,18.663 493.337,0 470.349,0L41.651,0C18.663,0 0,18.663 0,41.651L0,470.349C0,493.337 18.663,512 41.651,512L470.349,512C493.337,512 512,493.337 512,470.349L512,41.651Z" style="fill:white;"/>
    <g transform="matrix(0.9375,0,0,0.9375,16,16)">
        <g transform="matrix(10.24,0,0,10.24,-4.54747e-13,-9.09495e-13)">
            <g id="Background">
                <path d="M11.679,46.154C4.663,41.724 0,33.903 0,25C0,20.79 1.043,16.821 2.885,13.338L1.704,11.55L3.846,11.679C8.276,4.663 16.097,-0 25,-0C29.21,-0 33.179,1.043 36.662,2.885L38.45,1.704L38.321,3.846C45.337,8.276 50,16.097 50,25C50,29.21 48.957,33.179 47.115,36.662L48.296,38.45L46.154,38.321C41.724,45.337 33.903,50 25,50C20.79,50 16.821,48.957 13.338,47.115L11.55,48.296L11.679,46.154Z" style="fill:rgb(255,246,246);"/>
            </g>
        </g>
        <g id="Graphic" transform="matrix(9.7878,0,0,9.7878,-3062.49,-4873.13)">
            <path d="M341.026,507.639C336.801,507.143 332.663,508.37 329.434,510.845L316.913,510.093C322.861,500.651 334.472,495.736 345.811,498.774C347.733,499.289 349.548,500.006 351.238,500.896L341.026,507.639ZM352.983,501.903C362.426,507.851 367.341,519.462 364.302,530.801C363.787,532.724 363.07,534.538 362.181,536.229L355.064,525.45C355.554,521.419 354.475,517.464 352.239,514.298L352.983,501.903ZM361.174,537.973C355.225,547.416 343.615,552.331 332.275,549.292C330.353,548.777 328.539,548.06 326.848,547.171L338.437,539.519C341.704,539.672 344.874,538.81 347.563,537.156L361.174,537.973ZM325.103,546.164C315.661,540.215 310.746,528.605 313.784,517.265C314.299,515.343 315.016,513.529 315.906,511.838L323.188,522.868C323.042,526.343 324.043,529.706 325.924,532.492L325.103,546.164ZM341.184,516.325C342.537,516.701 343.712,517.403 344.648,518.325C346.635,520.281 347.543,523.221 346.771,526.104C346.4,527.486 345.689,528.686 344.752,529.639C342.796,531.625 339.856,532.533 336.973,531.761C336.949,531.754 336.926,531.748 336.902,531.742C335.55,531.366 334.374,530.663 333.438,529.742C331.451,527.786 330.543,524.846 331.316,521.963C331.322,521.939 331.329,521.916 331.335,521.892C332.507,517.67 336.872,515.169 341.114,516.306C341.137,516.312 341.161,516.319 341.184,516.325Z"/>
        </g>
        <g transform="matrix(3.97184,2.29314,-1.94459,3.36812,-87.2179,-3076.11)">
            <path d="M417.197,658.274L428.187,632.353L439.314,658.594C433.756,655.569 427.305,654.731 420.937,656.743C419.642,657.152 418.393,657.666 417.197,658.274Z" style="fill:rgb(242,13,13);"/>
        </g>
        <g transform="matrix(11.8296,0,0,10.915,-52.2792,-8.35824)">
            <ellipse cx="25.964" cy="24.22" rx="6.925" ry="7.505" style="fill:rgb(242,13,13);"/>
        </g>
    </g>
</svg>
